# xmcd
#
# Track frame offsets: 
#        150
#        12404
#        24292
#        36407
#        47832
#        58968
#        70782
#        81627
#        92500
#        104352
#        116380
#        127164
#        138339
#        148968
#        160648
#        170854
#        182017
#        194322
#        207380
#        219181
#        231554
#        243880
#        255150
#        266548
#        279530
#
# Disc length: 3892 seconds
#
# Revision: 0
# Processed by: cddbd v1.5.2PL0 Copyright (c) Steve Scherf et al.
# Submitted via: ExactAudioCopy v0.99pb4
#
DISCID=740f3219
DTITLE=Bob Wills and His Texas Playboys - King of Western Swing - Dall
DTITLE=as, Saginaw 1938 and 1940
DYEAR=2007
DGENRE=Western Swing
TTITLE0=1. Silver Bells
TTITLE1=2. Dreamy Eyes Waltz
TTITLE2=3. Beaumont Rag
TTITLE3=4. Twinkle Twinkle Little Star
TTITLE4=5. If I Could Bring Back My Buddy
TTITLE5=6. Whoa Babe
TTITLE6=7. Ida Red
TTITLE7=8. Yearning (Just for You)
TTITLE8=9. I Wonder If You Feel the Way I Do
TTITLE9=10. Prosperity Special
TTITLE10=11. Drunkard's Blues
TTITLE11=12. You're Okay
TTITLE12=13. Liza Pull Down the Shades
TTITLE13=14. That's What I Like 'Bout the South
TTITLE14=15. My Window Faces the South
TTITLE15=16. The Waltz You Saved for Me
TTITLE16=17. Don't Let the Deal Go Down
TTITLE17=18. You Don't Love Me (But I'll Always Care)
TTITLE18=19. No Wonder
TTITLE19=20. Lone Star Rag
TTITLE20=21. There's Going to Be a Party (For the Old Folks)
TTITLE21=22. I Don't Lov'a Nobody
TTITLE22=23. That Brownskin Gal
TTITLE23=24. Corrine Corrina
TTITLE24=25. Let Me Call You Sweetheart (I'm in Love with You)
EXTD=
EXTT0=
EXTT1=
EXTT2=
EXTT3=
EXTT4=
EXTT5=
EXTT6=
EXTT7=
EXTT8=
EXTT9=
EXTT10=
EXTT11=
EXTT12=
EXTT13=
EXTT14=
EXTT15=
EXTT16=
EXTT17=
EXTT18=
EXTT19=
EXTT20=
EXTT21=
EXTT22=
EXTT23=
EXTT24=
PLAYORDER=
